<?xml version="1.0" encoding="UTF-8" standalone="no"?>
<!DOCTYPE svg PUBLIC "-//W3C//DTD SVG 1.1//EN" "http://www.w3.org/Graphics/SVG/1.1/DTD/svg11.dtd">
<svg width="100%" height="100%" viewBox="0 0 1537 399" version="1.1" xmlns="http://www.w3.org/2000/svg" xmlns:xlink="http://www.w3.org/1999/xlink" xml:space="preserve" xmlns:serif="http://www.serif.com/" style="fill-rule:evenodd;clip-rule:evenodd;stroke-linejoin:round;stroke-miterlimit:2;">
    <g transform="matrix(1,0,0,1,-5050.01,-804.853)">
        <g transform="matrix(4.16667,0,0,4.16667,3946.36,0)">
            <g transform="matrix(1,0,0,1,0,-56.0588)">
                <path d="M632.331,311.017C632.16,311.496 632.045,311.846 631.979,312.079C632.045,312.311 632.16,312.66 632.331,313.135L633.705,316.975L629.595,316.761C625.527,316.549 621.334,316.39 617.02,316.287C613.699,316.207 610.065,316.16 606.121,316.145L606.121,320.491L615.236,320.491C617.631,320.491 619.877,320.46 621.969,320.399C624.201,320.334 626.588,320.231 629.127,320.091L633.324,319.859L631.852,323.76C631.714,324.126 631.599,324.467 631.507,324.779C631.599,325.092 631.714,325.434 631.852,325.8L633.324,329.7L629.127,329.468C626.59,329.328 624.203,329.224 621.972,329.16C619.879,329.098 617.631,329.068 615.236,329.068L606.121,329.068L606.121,335.198C610.182,335.17 614.013,335.112 617.611,335.024C621.914,334.92 625.909,334.769 629.595,334.573L633.7,334.354L632.331,338.199C632.161,338.675 632.046,339.026 631.979,339.262C632.045,339.495 632.16,339.846 632.331,340.324L633.626,343.961L583.497,343.961L583.497,307.381L633.625,307.381L632.331,311.017ZM467.958,329.653C467.306,329.191 466.587,328.681 465.81,328.126C464.657,327.302 463.674,326.593 462.857,325.995C461.667,325.118 460.764,324.449 460.125,323.97C459.369,323.405 458.423,322.691 457.286,321.829C455.693,320.619 454.052,319.375 452.372,318.103L451.026,317.083L451.03,317.078C450.157,316.422 449.102,315.638 447.8,314.68C446.668,313.847 445.58,313.058 444.546,312.318L437.336,307.167L446.215,307.391C449.12,307.465 451.41,307.52 453.069,307.556C454.448,307.586 455.551,307.602 456.427,307.602C457.301,307.602 458.404,307.586 459.783,307.556C461.441,307.52 463.732,307.465 466.637,307.391L467.664,307.365L468.446,307.999C468.731,308.23 469.756,309.085 471.516,310.56L478.161,316.158L478.162,316.156C480.023,317.687 481.563,318.918 482.781,319.846C483.124,320.107 483.427,320.334 483.692,320.527C484.866,319.773 486.407,318.64 488.315,317.126C491.101,314.914 494.631,311.9 498.9,308.084L499.734,307.339L500.861,307.391C501.801,307.435 502.699,307.468 503.552,307.488C504.176,307.502 505.093,307.51 506.318,307.51C507.491,307.51 508.38,307.502 508.996,307.488C509.834,307.468 510.737,307.435 511.699,307.391L521.096,306.964L520.5,307.381L578.759,307.381L577.541,310.974C577.41,311.359 577.295,311.719 577.196,312.06C577.259,312.274 577.38,312.644 577.551,313.158L578.811,316.924L574.804,316.73C570.296,316.512 566.387,316.35 563.077,316.245C560.999,316.18 559.064,316.135 557.274,316.112L557.274,344.258L554.441,344.171C552.03,344.098 550.131,344.042 548.759,344.006C547.612,343.977 546.69,343.961 545.973,343.961C545.244,343.961 544.318,343.977 543.168,344.006C541.794,344.042 539.895,344.098 537.486,344.171L534.652,344.258L534.652,316.106C532.25,316.126 529.847,316.172 527.447,316.245C524.027,316.349 520.312,316.511 516.305,316.73L512.205,316.955L513.558,313.115C513.712,312.678 513.825,312.327 513.901,312.061L513.884,312.002L513.401,312.339L512.98,312.634C511.942,313.358 509.999,314.715 507.872,316.182C506.052,317.436 504.763,318.329 503.841,318.971C502.277,320.06 501.237,320.787 500.567,321.258L500.545,321.268C499.829,321.764 498.85,322.46 497.702,323.285C496.492,324.154 495.625,324.785 494.922,325.301L494.921,325.299C494.028,325.962 493.125,326.646 492.214,327.35C491.683,327.76 491.138,328.186 490.58,328.629L490.58,344.257L487.747,344.171C485.315,344.098 483.406,344.042 482.037,344.006C480.889,343.977 479.977,343.961 479.278,343.961C478.581,343.961 477.663,343.977 476.511,344.006C475.136,344.042 473.223,344.098 470.792,344.171L467.958,344.257L467.958,329.653ZM429.42,317.866C428.494,316.891 427.174,316.144 425.458,315.626C423.55,315.05 421.156,314.761 418.275,314.761C414.398,314.761 411.571,315.077 409.8,315.709C409.14,315.944 408.73,316.153 408.57,316.336C408.838,316.511 409.253,316.679 409.818,316.842L409.819,316.835C410.935,317.151 412.518,317.544 414.564,318.009C416.698,318.495 419.296,319.055 422.356,319.687C425.532,320.348 428.336,321.027 430.763,321.724C433.252,322.438 435.316,323.163 436.951,323.898C438.882,324.767 440.372,325.838 441.419,327.11C442.607,328.552 443.201,330.182 443.201,331.998C443.201,333.544 442.694,334.994 441.684,336.346C440.819,337.505 439.59,338.559 438.002,339.506C436.566,340.367 434.841,341.131 432.834,341.799C430.902,342.441 428.714,342.989 426.279,343.443C423.831,343.896 421.277,344.233 418.618,344.452C415.93,344.674 413.115,344.784 410.169,344.784C406.57,344.784 403.177,344.613 399.984,344.271C396.769,343.926 393.818,343.414 391.129,342.733L387.256,341.752L389.556,338.52C390.371,337.373 391.02,336.378 391.5,335.537C391.968,334.715 392.31,333.999 392.522,333.391L393.167,331.546L398.963,331.546L399.741,332.996C399.946,333.379 400.317,333.748 400.846,334.1C401.554,334.572 402.498,334.994 403.672,335.367L403.674,335.36C404.977,335.768 406.38,336.071 407.884,336.269C409.42,336.471 411.138,336.573 413.043,336.573C414.853,336.573 416.467,336.481 417.884,336.296C419.28,336.114 420.548,335.838 421.687,335.47C422.592,335.177 423.221,334.872 423.57,334.554C423.618,334.51 423.643,334.59 423.643,334.55C423.643,334.518 423.619,334.48 423.572,334.436C423.271,334.153 422.713,333.89 421.896,333.651L421.885,333.651C420.664,333.286 419.064,332.883 417.086,332.442C415.102,331.999 412.623,331.494 409.652,330.926C406.673,330.353 404.027,329.749 401.718,329.112C399.371,328.464 397.386,327.781 395.768,327.063C393.857,326.216 392.386,325.139 391.356,323.833C390.213,322.383 389.639,320.729 389.639,318.872C389.639,317.832 389.865,316.817 390.311,315.831C390.726,314.913 391.327,314.049 392.108,313.244C392.833,312.496 393.716,311.806 394.758,311.177C395.737,310.585 396.861,310.041 398.131,309.546L398.132,309.548C399.37,309.058 400.733,308.629 402.216,308.261C403.701,307.893 405.311,307.58 407.039,307.321C408.739,307.067 410.589,306.875 412.587,306.745C414.586,306.615 416.646,306.551 418.77,306.551C420.71,306.551 422.642,306.611 424.567,306.733C426.424,306.85 428.236,307.029 430.002,307.268C431.773,307.509 433.276,307.762 434.504,308.022C435.851,308.307 436.95,308.616 437.792,308.944L441.565,310.415L438.805,313.338C438.342,313.828 437.83,314.424 437.267,315.122C436.672,315.861 436.036,316.689 435.355,317.61L434.526,318.729L430.241,318.729L429.42,317.866ZM303.712,307.381L318.328,307.381L318.871,307.616C320.907,308.495 322.868,309.342 324.752,310.152L330.15,312.477L330.153,312.472C335.086,314.566 335.165,314.601 335.639,314.802L342.826,317.866C345.128,318.844 347.513,319.868 349.914,320.904C352.793,322.146 354.797,323.016 356.235,323.644L356.233,323.648C358.416,324.597 360.399,325.473 362.227,326.293C362.922,326.605 363.625,326.922 364.336,327.244L364.336,307.225L367.245,307.391C368.027,307.436 368.752,307.469 369.41,307.488C369.922,307.502 370.671,307.51 371.661,307.51C372.632,307.51 373.371,307.502 373.883,307.488C374.539,307.469 375.273,307.436 376.078,307.391L378.986,307.229L378.986,344.184L376.218,344.171L366.532,344.125L365.93,344.122L365.412,343.891L356.761,340.03L351.33,337.606C348.321,336.263 346.143,335.293 344.858,334.725C343.58,334.159 341.551,333.268 338.813,332.071L338.813,332.06C337.304,331.396 335.309,330.532 332.934,329.511C331.135,328.737 329.116,327.878 326.952,326.962L326.954,326.958L318.362,323.355L318.362,344.163L315.539,344.087C314.957,344.072 314.362,344.049 313.608,344.02L313.166,344.003C312.645,343.984 312.237,343.971 311.933,343.964C311.855,343.962 311.522,343.961 311.037,343.961C310.527,343.961 310.205,343.962 310.109,343.964C309.798,343.971 309.375,343.984 308.831,344.003L307.38,344.057L306.567,344.087L303.712,344.192L303.712,307.381ZM270.655,307.391C273.064,307.465 274.963,307.521 276.337,307.556C277.485,307.586 278.408,307.602 279.141,307.602C279.864,307.602 280.782,307.586 281.928,307.556C283.3,307.521 285.199,307.465 287.609,307.391L290.442,307.305L290.442,344.258L287.609,344.171C285.199,344.098 283.3,344.042 281.928,344.006C280.78,343.977 279.858,343.961 279.141,343.961C278.413,343.961 277.487,343.977 276.337,344.006C274.963,344.042 273.064,344.098 270.655,344.171L267.821,344.258L267.821,307.305L270.655,307.391Z" style="fill:rgb(0,98,175);fill-rule:nonzero;"/>
            </g>
        </g>
        <g transform="matrix(4.16667,0,0,4.16667,3946.36,0)">
            <g transform="matrix(1,0,0,1,0,-155.744)">
                <path d="M264.878,357.861L277.078,357.861L282.104,372.836L287.062,357.861L298.493,357.861L286.571,385.917C285.59,388.184 284.744,389.877 284.016,390.993C283.288,392.102 282.205,393.024 280.784,393.743C279.354,394.463 277.391,394.818 274.895,394.818C273.575,394.818 271.299,394.632 268.076,394.251L268.076,386.738C269.979,386.941 271.367,387.034 272.238,387.034C274.836,387.034 276.41,386.069 276.976,384.14L264.878,357.861ZM302.283,357.861L317.056,357.861L322.758,379.969L328.436,357.861L343.158,357.861L343.158,394.2L333.986,394.2L333.986,366.491L326.871,394.2L318.571,394.2L311.48,366.491L311.48,394.2L302.283,394.2L302.283,357.861ZM350.367,357.861L361.594,357.861L361.594,370.577L373.871,370.577L373.871,357.861L385.15,357.861L385.15,394.2L373.871,394.2L373.871,379.504L361.594,379.504L361.594,394.2L350.367,394.2L350.367,357.861ZM403.865,371.863L409.864,371.863C415.363,371.863 419.441,372.836 422.107,374.782C424.763,376.72 426.092,379.741 426.092,383.836C426.092,387.194 424.873,389.758 422.437,391.535C420,393.312 416.506,394.2 411.945,394.2L392.654,394.2L392.654,357.861L403.865,357.861L403.865,371.863ZM403.865,386.391L409.61,386.391C413.13,386.391 414.89,385.122 414.89,382.575C414.89,380.341 413.13,379.224 409.61,379.224L403.865,379.224L403.865,386.391ZM428.842,357.861L440.095,357.861L440.095,394.2L428.842,394.2L428.842,357.861ZM482.315,357.861L482.315,394.2L471.755,394.2L471.755,374.25L458.142,394.2L447.557,394.2L447.557,357.861L458.142,357.861L458.142,377.964L471.832,357.861L482.315,357.861ZM474.082,348.909C473.735,350.999 472.728,352.674 471.07,353.96C469.412,355.238 467.432,355.881 465.139,355.881C462.855,355.881 460.883,355.238 459.208,353.943C457.541,352.657 456.543,350.982 456.213,348.909L460.528,348.909C461.221,350.982 462.719,352.014 465.037,352.014C467.516,352.014 469.09,350.982 469.767,348.909L474.082,348.909ZM544.875,402.111L535.83,402.111L535.83,394.2L512.63,394.2L512.63,402.111L503.602,402.111L503.602,385.824L507.35,385.824C509.449,379.952 510.498,373.335 510.498,365.966L510.498,357.861L540.957,357.861L540.957,385.824L544.875,385.824L544.875,402.111ZM529.73,385.824L529.73,366.787L520.71,366.787L520.71,367.252C520.71,372.278 519.856,378.471 518.155,385.824L529.73,385.824ZM547.869,376.052C547.869,370.121 549.528,365.501 552.828,362.201C556.136,358.893 560.739,357.243 566.636,357.243C572.686,357.243 577.348,358.867 580.622,362.116C583.888,365.357 585.529,369.909 585.529,375.755C585.529,380.003 584.81,383.488 583.38,386.205C581.95,388.921 579.886,391.036 577.187,392.55C574.479,394.065 571.12,394.818 567.084,394.818C562.989,394.818 559.597,394.166 556.906,392.864C554.224,391.552 552.049,389.487 550.374,386.662C548.707,383.836 547.869,380.299 547.869,376.052ZM559.106,376.102C559.106,379.774 559.783,382.406 561.145,384.013C562.507,385.612 564.368,386.416 566.712,386.416C569.123,386.416 570.993,385.629 572.313,384.064C573.633,382.49 574.302,379.673 574.302,375.612C574.302,372.185 573.608,369.689 572.229,368.107C570.849,366.533 568.98,365.746 566.611,365.746C564.351,365.746 562.533,366.542 561.162,368.149C559.791,369.748 559.106,372.405 559.106,376.102ZM591.452,357.861L606.224,357.861L611.927,379.969L617.605,357.861L632.326,357.861L632.326,394.2L623.155,394.2L623.155,366.491L616.039,394.2L607.739,394.2L600.649,366.491L600.649,394.2L591.452,394.2L591.452,357.861Z" style="fill:rgb(0,98,175);fill-rule:nonzero;"/>
            </g>
        </g>
    </g>
</svg>
